<?xml version="1.0" standalone="no"?>
<!DOCTYPE svg PUBLIC "-//W3C//DTD SVG 1.1//EN" "http://www.w3.org/Graphics/SVG/1.1/DTD/svg11.dtd">
<svg xmlns="http://www.w3.org/2000/svg" width="469" height="181" viewBox="0 0 469 181" fill="none">
  <g clip-path="url(#clip0_1_67)">
    <path d="M45.98 54.37H23.67V99.08C23.67 105.95 23.97 110.57 24.57 112.95C25.17 115.33 26.45 117.24 28.41 118.69C30.37 120.13 32.46 120.86 34.69 120.86C39.02 120.86 42.79 118.39 45.98 113.45L48.87 115.17C47 119.15 44.24 122.14 40.6 124.16C36.96 126.17 33.27 127.19 29.54 127.19C25.2 127.19 21.39 125.91 18.11 123.35C14.83 120.79 12.78 117.79 11.97 114.36C11.16 110.93 10.75 104.91 10.75 96.3V54.39H0V50.24C4.94 50.12 9.36 48.04 13.28 44.01C17.2 39.98 19.69 34.31 20.78 27.03H23.67V50.25H45.98V54.4V54.37Z" fill="#392547"/>
    <path d="M79.56 66.12C81.61 60.76 84.93 56.28 89.54 52.66C94.15 49.05 98.65 47.24 103.04 47.24C107.01 47.24 110.14 48.48 112.43 50.94C114.72 53.41 115.86 55.94 115.86 58.53C115.86 60.28 115.27 61.78 114.1 63.04C112.93 64.31 111.5 64.94 109.81 64.94C106.8 64.94 104.51 62.71 102.95 58.26C101.86 55.25 100.24 53.75 98.07 53.75C95.48 53.75 92.38 55.51 88.77 59.04C85.15 62.56 82.84 66.22 81.81 70.01C80.78 73.8 80.27 79.01 80.27 85.63V98.82C80.27 106.71 80.38 111.67 80.59 113.72C80.8 115.77 81.66 117.34 83.17 118.42C84.68 119.51 87.36 120.05 91.21 120.05H93.74V124.2H54.45V120.05H56.35C59.96 120.05 62.54 119.55 64.07 118.56C65.6 117.57 66.52 116.17 66.82 114.36C67.12 112.56 67.27 107.37 67.27 98.82V77.95C67.27 70 67.16 65.02 66.95 63C66.74 60.98 65.88 59.42 64.38 58.3C62.87 57.19 60.19 56.63 56.34 56.63H54.44V52.57C60.1 51.91 67.51 50.13 76.66 47.24C78.41 52 79.37 58.29 79.55 66.12H79.56Z" fill="#392547"/>
    <path d="M145.65 47.24V98.82C145.65 106.71 145.77 111.67 146.01 113.72C146.25 115.77 147.13 117.34 148.63 118.42C150.13 119.51 152.81 120.05 156.67 120.05H158.57V124.2H118.74V120.05H121.81C126.09 120.05 128.87 119.43 130.17 118.2C131.46 116.97 132.22 115.49 132.43 113.77C132.64 112.05 132.75 107.07 132.75 98.82V76.42C132.75 67.75 132.34 62.45 131.53 60.52C130.72 58.59 129.63 57.39 128.28 56.91C126.93 56.43 124.56 56.19 121.19 56.19H118.75V52.04C129.47 50.96 137.78 49.36 143.68 47.25H145.67L145.65 47.24ZM128.22 9.48C128.22 6.89 129.14 4.66 130.97 2.8C132.81 0.94 135.02 0 137.61 0C140.2 0 142.4 0.93 144.2 2.8C146 4.67 146.91 6.89 146.91 9.48C146.91 12.07 146 14.39 144.2 16.26C142.39 18.13 140.19 19.06 137.61 19.06C135.03 19.06 132.81 18.13 130.97 16.26C129.13 14.39 128.22 12.13 128.22 9.48Z" fill="#392547"/>
    <path d="M190.08 0V98.82C190.08 106.71 190.19 111.67 190.4 113.72C190.61 115.77 191.47 117.34 192.98 118.42C194.48 119.51 197.16 120.05 201.02 120.05H203.19V124.2H163.63V120.05H166.16C169.77 120.05 172.35 119.55 173.88 118.56C175.41 117.57 176.33 116.17 176.63 114.36C176.93 112.56 177.08 107.37 177.08 98.82V25.65C177.08 17.88 176.39 12.99 175 10.97C173.61 8.95 170.24 7.94 164.88 7.94V3.79C168.55 3.79 172.87 3.37 177.84 2.53C182.81 1.69 186.23 0.84 188.09 0L190.08 0Z" fill="#392547"/>
    <path d="M357.09 56.72C362.21 50.94 367.39 48.05 372.63 48.05C375.52 48.05 377.76 48.83 379.36 50.4C380.95 51.97 381.75 53.68 381.75 55.55C381.75 59.53 379.94 61.51 376.33 61.51C374.34 61.51 372.63 60.28 371.18 57.81C369.85 55.52 368.47 54.38 367.02 54.38C364.73 54.38 362.2 55.95 359.43 59.08C362.56 64.02 364.13 69.26 364.13 74.8C364.13 82.03 361.54 88.41 356.36 93.95C351.18 99.55 342.45 102.56 330.17 102.98C317.4 103.4 311.02 105.99 311.02 110.75C311.02 112.98 312.46 114.54 315.36 115.45C318.19 116.41 324.15 117.14 333.24 117.62C343.17 118.1 350.82 119.02 356.18 120.38C361.54 121.73 365.82 124.46 369.01 128.56C372.2 132.65 373.8 137.53 373.8 143.19C373.8 151.14 370.55 157.55 364.04 162.43C357.54 167.31 348.17 169.75 335.95 169.75C324.75 169.75 315.78 167.58 309.03 163.25C302.28 158.91 298.91 153.43 298.91 146.81C298.91 143.14 299.87 140.12 301.8 137.78C303.73 135.43 306.47 134.26 310.02 134.26C310.98 134.26 311.86 134.41 312.64 134.71C308.91 138.8 307.04 143.14 307.04 147.72C307.04 153.02 309.52 157.4 314.49 160.86C319.46 164.32 326.88 166.05 336.75 166.05C345.54 166.05 352.39 164.29 357.3 160.77C362.21 157.24 364.66 152.74 364.66 147.26C364.66 141.24 362.46 136.99 358.07 134.53C353.67 132.12 345.85 130.67 334.59 130.19C321.64 129.65 313.24 128.05 309.39 125.4C305.54 122.81 303.61 119.47 303.61 115.37C303.61 107.48 309.12 102.51 320.14 100.47C314.42 97.1 310.11 93.25 307.22 88.91C304.33 84.57 302.89 79.73 302.89 74.37C302.89 66.84 305.86 60.44 311.79 55.17C317.72 49.9 324.75 47.27 332.88 47.27C342.93 47.27 351 50.43 357.09 56.75V56.72ZM316.44 76.41C316.44 84.18 318.03 89.87 321.23 93.48C324.42 97.1 328.48 98.9 333.42 98.9C337.99 98.9 341.92 97.11 345.21 93.53C348.5 89.95 350.13 83.73 350.13 74.88C350.13 66.03 348.38 59.83 344.89 56.45C341.4 53.08 337.45 51.39 333.06 51.39C327.52 51.39 323.36 53.47 320.59 57.62C317.82 61.77 316.44 68.04 316.44 76.41Z" fill="#34284B"/>
    <path d="M431.99 110.2L449.15 69.1C451.62 63.08 452.85 59.74 452.85 59.07C452.85 56.06 449.51 54.49 442.82 54.37V50.22H468.83V54.37C464.79 54.55 461.84 55.62 459.98 57.58C458.12 59.54 455.8 63.86 453.03 70.54L420.06 150.12C416.93 157.71 414.16 162.87 411.75 165.61C409.34 168.35 406.69 169.72 403.8 169.72C399.89 169.72 397.93 167.94 397.93 164.39C397.93 160.3 401.06 156.83 407.32 154C410.99 152.37 413.45 150.99 414.68 149.85C415.91 148.71 417.13 146.63 418.34 143.62L425.38 126.01L397.56 66.39C395.09 61.15 393.04 57.84 391.42 56.46C389.8 55.08 387.02 54.38 383.11 54.38V50.23H417.07V54.38C411.11 54.56 408.13 55.8 408.13 58.08C408.13 58.99 409.3 61.93 411.65 66.93L431.97 110.2H431.99Z" fill="#392547"/>
    <path opacity="0.6" d="M213.3 103.44C219.12 108.78 225.13 112.5 233.12 113.04C237.2 113.32 241.06 114.16 245.14 113.28C247.66 112.74 249.98 111.7 252.21 110.47C231.73 107.24 216.07 89.53 216.07 68.15C216.07 61.48 217.59 55.16 220.31 49.54C211.8 57.37 206.46 68.61 206.46 81.09C206.46 89.04 208.64 96.45 212.41 102.78C212.71 102.96 213.01 103.18 213.29 103.44H213.3Z" fill="#D1C3BA"/>
    <path d="M287.37 84.64C287.39 83.24 287.39 81.84 287.39 80.44C286.58 79.65 286.01 78.55 285.91 77.15C285.68 73.88 283.95 71.11 282.2 68.37C282.16 72.19 281.6 76.08 280.48 79.93C273.83 102.65 250.02 115.67 227.31 109.02C220.91 107.15 215.37 103.85 210.73 99.66C215.86 110.03 225.04 118.37 237.02 121.87C243.54 123.78 250.14 124.05 256.4 122.96C257.17 122.33 258.19 121.93 259.46 121.93C259.51 121.93 259.55 121.93 259.6 121.93C260.37 121.3 261.38 120.89 262.66 120.89C262.73 120.89 262.79 120.89 262.85 120.89C263.27 120.49 263.78 120.16 264.38 119.95C264.63 119.79 264.9 119.66 265.19 119.54C265.72 117.65 267.26 116.08 269.8 116.08C270.07 116.08 270.32 116.1 270.56 116.14C270.7 116.01 270.85 115.88 270.99 115.76C272.54 114.44 274.33 113.36 275.97 112.15C280.68 108.69 283.82 104.47 283.83 98.41C283.83 95.94 285.31 94.42 287.12 93.85C287.7 90.93 287.32 86.4 287.35 84.63L287.37 84.64Z" fill="#EB9A4B"/>
    <path d="M257.99 48.51C277.92 61.27 282.44 89.78 269.68 109.71C266.08 115.33 261.4 119.75 256.07 123.02C267.46 121.01 278.01 114.51 284.74 103.99C297.5 84.06 291.69 57.55 271.76 44.78C264.65 40.23 256.49 37.26 248.11 37.18C246.98 37.17 254.3 33.78 253.17 33.69C243.39 32.93 227.83 39.3 224.08 44.16C229.58 43.19 233.14 42.69 240.57 44.82C240.97 44.93 242.68 41.36 243.1 41.43C247.71 42.2 254.01 45.94 257.99 48.49V48.51Z" fill="#392547"/>
    <path d="M22.62 149.92V150.98H18.68V162.31C18.68 164.32 18.71 165.59 18.76 166.11C18.81 166.63 19.03 167.03 19.42 167.31C19.8 167.59 20.49 167.72 21.47 167.72H22.46V168.78H12.26V167.72C13.32 167.72 14.05 167.61 14.46 167.4C14.87 167.19 15.12 166.86 15.22 166.42C15.32 165.98 15.37 164.61 15.37 162.31V150.98H11.85V149.92H15.37V148.22C15.37 146.32 15.45 144.84 15.6 143.8C15.75 142.76 16.19 141.68 16.9 140.56C17.61 139.45 18.51 138.59 19.59 137.99C20.67 137.39 21.96 137.09 23.45 137.09C25.26 137.09 26.71 137.47 27.8 138.22C28.89 138.97 29.44 139.74 29.44 140.52C29.44 140.97 29.29 141.33 28.98 141.63C28.67 141.92 28.31 142.07 27.9 142.07C27.09 142.07 26.34 141.44 25.67 140.18C24.92 138.8 23.94 138.11 22.75 138.11C21.78 138.11 20.93 138.46 20.2 139.16C19.47 139.86 19.04 140.73 18.9 141.77C18.76 142.81 18.69 145.06 18.69 148.5V149.93H22.63L22.62 149.92Z" fill="#392547"/>
    <path d="M57.17 153.98C57.69 152.61 58.54 151.47 59.71 150.55C60.88 149.63 62.03 149.17 63.15 149.17C64.16 149.17 64.96 149.49 65.55 150.11C66.14 150.73 66.43 151.38 66.43 152.04C66.43 152.49 66.28 152.87 65.98 153.19C65.68 153.51 65.32 153.67 64.89 153.67C64.12 153.67 63.54 153.1 63.14 151.97C62.86 151.2 62.45 150.82 61.9 150.82C61.24 150.82 60.45 151.27 59.53 152.17C58.61 153.07 58.02 154 57.76 154.97C57.5 155.94 57.37 157.27 57.37 158.95V162.31C57.37 164.32 57.4 165.59 57.45 166.11C57.5 166.63 57.72 167.03 58.11 167.31C58.49 167.59 59.18 167.72 60.16 167.72H60.81V168.78H50.79V167.72H51.27C52.19 167.72 52.85 167.59 53.24 167.34C53.63 167.09 53.87 166.73 53.94 166.27C54.02 165.81 54.05 164.49 54.05 162.31V156.99C54.05 154.96 54.02 153.69 53.97 153.18C53.92 152.67 53.7 152.27 53.31 151.98C52.93 151.7 52.24 151.55 51.26 151.55H50.78V150.51C52.22 150.34 54.11 149.89 56.45 149.15C56.9 150.36 57.14 151.97 57.19 153.96L57.17 153.98Z" fill="#392547"/>
    <path d="M110.28 156.3H97.13C97.07 157.21 97.04 157.88 97.04 158.33C97.04 161.65 97.56 164.14 98.59 165.8C99.62 167.46 101.17 168.3 103.23 168.3C106.02 168.3 108.01 167.05 109.17 164.55H110.28C109.79 166.12 108.81 167.34 107.35 168.22C105.89 169.1 104.3 169.54 102.58 169.54C100.98 169.54 99.47 169.14 98.05 168.33C96.63 167.52 95.47 166.38 94.56 164.91C93.65 163.44 93.2 161.65 93.2 159.54C93.2 156.56 94.08 154.08 95.83 152.11C97.58 150.14 99.77 149.15 102.39 149.15C104.86 149.15 106.77 149.9 108.13 151.41C109.48 152.92 110.19 154.54 110.27 156.29L110.28 156.3ZM106.25 155.38C106.3 155.03 106.32 154.71 106.32 154.44C106.32 153.09 105.92 152.04 105.13 151.3C104.34 150.55 103.37 150.18 102.22 150.18C99.42 150.18 97.76 151.92 97.22 155.39H106.25V155.38Z" fill="#392547"/>
    <path d="M145.06 149.16V162.31C145.06 164.32 145.09 165.59 145.15 166.11C145.21 166.63 145.43 167.03 145.82 167.31C146.2 167.59 146.89 167.72 147.87 167.72H148.35V168.78H138.19V167.72H138.97C140.06 167.72 140.77 167.56 141.1 167.25C141.43 166.94 141.62 166.56 141.68 166.12C141.73 165.68 141.76 164.41 141.76 162.31V156.6C141.76 154.39 141.66 153.04 141.45 152.55C141.24 152.06 140.97 151.75 140.62 151.63C140.27 151.51 139.67 151.45 138.81 151.45H138.19V150.39C140.92 150.11 143.04 149.71 144.55 149.17H145.06V149.16ZM140.61 139.53C140.61 138.87 140.84 138.3 141.31 137.83C141.78 137.35 142.34 137.12 143 137.12C143.66 137.12 144.22 137.36 144.68 137.83C145.14 138.31 145.37 138.87 145.37 139.53C145.37 140.19 145.14 140.78 144.68 141.26C144.22 141.74 143.66 141.97 143 141.97C142.34 141.97 141.78 141.73 141.31 141.26C140.84 140.78 140.61 140.21 140.61 139.53Z" fill="#392547"/>
    <path d="M190.8 151.58C192.11 150.11 193.43 149.37 194.76 149.37C195.5 149.37 196.07 149.57 196.48 149.97C196.89 150.37 197.09 150.81 197.09 151.28C197.09 152.29 196.63 152.8 195.71 152.8C195.2 152.8 194.77 152.49 194.4 151.86C194.06 151.28 193.71 150.98 193.34 150.98C192.76 150.98 192.11 151.38 191.41 152.18C192.21 153.44 192.61 154.78 192.61 156.19C192.61 158.03 191.95 159.66 190.63 161.07C189.31 162.5 187.08 163.27 183.95 163.37C180.69 163.48 179.07 164.14 179.07 165.35C179.07 165.92 179.44 166.32 180.18 166.55C180.9 166.8 182.42 166.98 184.74 167.1C187.27 167.22 189.22 167.46 190.59 167.8C191.96 168.14 193.05 168.84 193.86 169.88C194.67 170.92 195.08 172.17 195.08 173.61C195.08 175.64 194.25 177.27 192.59 178.52C190.93 179.77 188.54 180.39 185.43 180.39C182.57 180.39 180.29 179.84 178.57 178.73C176.85 177.62 175.99 176.23 175.99 174.54C175.99 173.6 176.24 172.84 176.73 172.24C177.22 171.64 177.92 171.34 178.83 171.34C179.08 171.34 179.3 171.38 179.5 171.45C178.55 172.49 178.07 173.6 178.07 174.77C178.07 176.12 178.7 177.24 179.97 178.12C181.24 179 183.13 179.44 185.65 179.44C187.89 179.44 189.64 178.99 190.89 178.09C192.14 177.19 192.77 176.04 192.77 174.65C192.77 173.11 192.21 172.03 191.09 171.4C189.97 170.79 187.97 170.42 185.1 170.29C181.8 170.15 179.66 169.75 178.67 169.07C177.69 168.41 177.2 167.56 177.2 166.51C177.2 164.5 178.61 163.23 181.42 162.71C179.96 161.85 178.86 160.87 178.13 159.76C177.39 158.65 177.02 157.42 177.02 156.05C177.02 154.13 177.78 152.5 179.29 151.16C180.8 149.82 182.6 149.14 184.67 149.14C187.23 149.14 189.29 149.95 190.84 151.56L190.8 151.58ZM180.44 156.6C180.44 158.58 180.85 160.03 181.66 160.95C182.47 161.87 183.51 162.33 184.77 162.33C185.94 162.33 186.94 161.87 187.78 160.96C188.62 160.05 189.04 158.46 189.04 156.2C189.04 153.94 188.59 152.36 187.7 151.5C186.81 150.64 185.8 150.21 184.68 150.21C183.27 150.21 182.21 150.74 181.5 151.8C180.79 152.86 180.44 154.46 180.44 156.59V156.6Z" fill="#392547"/>
    <path d="M229.81 153.03C230.73 151.74 231.76 150.77 232.91 150.13C234.06 149.49 235.31 149.16 236.68 149.16C238.23 149.16 239.52 149.48 240.54 150.13C241.56 150.78 242.22 151.57 242.53 152.51C242.84 153.45 242.99 154.99 242.99 157.11V162.32C242.99 164.53 243.03 165.88 243.12 166.35C243.2 166.83 243.45 167.18 243.87 167.4C244.28 167.62 245.05 167.73 246.17 167.73V168.79H236.43V167.73H236.87C237.99 167.73 238.72 167.57 239.05 167.25C239.38 166.93 239.57 166.55 239.63 166.11C239.68 165.67 239.71 164.41 239.71 162.32V156.65C239.71 155.08 239.62 153.92 239.43 153.17C239.25 152.42 238.81 151.8 238.13 151.3C237.45 150.81 236.59 150.56 235.56 150.56C234.36 150.56 233.29 150.91 232.34 151.61C231.39 152.31 230.55 153.36 229.83 154.75V162.31C229.83 164.43 229.86 165.73 229.93 166.23C230 166.72 230.23 167.09 230.63 167.35C231.03 167.6 231.76 167.73 232.82 167.73V168.79H223.24V167.73H223.72C224.83 167.73 225.54 167.57 225.87 167.26C226.2 166.95 226.39 166.57 226.45 166.13C226.5 165.69 226.53 164.42 226.53 162.32V143.52C226.53 141.62 226.35 140.41 225.99 139.9C225.63 139.39 224.77 139.14 223.4 139.14V138.08C225.78 138.08 227.76 137.76 229.34 137.11H229.82V153.03H229.81Z" fill="#392547"/>
    <path d="M285.5 150.98H279.81V162.38C279.81 164.13 279.89 165.31 280.04 165.92C280.19 166.53 280.52 167.01 281.02 167.38C281.52 167.75 282.05 167.93 282.62 167.93C283.73 167.93 284.69 167.3 285.5 166.04L286.24 166.48C285.76 167.49 285.06 168.26 284.13 168.77C283.2 169.28 282.26 169.54 281.31 169.54C280.2 169.54 279.23 169.21 278.4 168.56C277.56 167.91 277.04 167.14 276.83 166.27C276.62 165.4 276.52 163.86 276.52 161.66V150.97H273.78V149.91C275.04 149.88 276.17 149.35 277.17 148.32C278.17 147.29 278.81 145.85 279.08 143.99H279.82V149.91H285.51V150.97L285.5 150.98Z" fill="#392547"/>
  </g>
  <defs>
    <clipPath id="clip0_1_67">
      <rect width="468.85" height="180.4" fill="white"/>
    </clipPath>
  </defs>
</svg>